<svg width="167" height="40" viewBox="0 0 167 40" fill="none" xmlns="http://www.w3.org/2000/svg">
<path d="M18.1774 22.9521C18.1774 23.7201 18.6254 24.3121 19.5214 24.7281C20.4334 25.1281 21.9614 25.3281 24.1054 25.3281C26.0574 25.3281 27.4014 25.1841 28.1374 24.8961C28.8734 24.6081 29.2414 24.1761 29.2414 23.6001C29.2414 23.1681 29.1054 22.8481 28.8334 22.6401C28.5614 22.4321 28.0334 22.2721 27.2494 22.1601C26.4654 22.0321 25.1774 21.9121 23.3854 21.8001C21.0014 21.6402 19.0814 21.3601 17.6254 20.9601C16.1854 20.5441 15.1134 19.9521 14.4094 19.1841C13.7214 18.4161 13.3774 17.4001 13.3774 16.1361C13.3774 14.4081 14.2414 13.1121 15.9694 12.2481C17.6974 11.3841 20.0974 10.9521 23.1694 10.9521C26.4974 10.9521 29.0654 11.4481 30.8734 12.4401C32.6974 13.4321 33.6414 14.8721 33.7054 16.7601H28.5214C28.5214 16.0081 28.0894 15.4721 27.2254 15.1521C26.3614 14.8321 24.9614 14.6721 23.0254 14.6721C21.3134 14.6721 20.1374 14.8001 19.4974 15.0561C18.8734 15.3121 18.5614 15.6961 18.5614 16.2081C18.5614 16.5761 18.6974 16.8641 18.9694 17.0721C19.2414 17.2801 19.7534 17.4561 20.5054 17.6001C21.2734 17.7281 22.4494 17.8561 24.0334 17.9841C26.5934 18.1761 28.5534 18.4081 29.9134 18.6801C31.2894 18.9521 32.3854 19.4481 33.2014 20.1681C34.0174 20.8881 34.4254 21.9601 34.4254 23.3841C34.4254 25.4641 33.5534 26.9282 31.8094 27.7761C30.0814 28.6241 27.5694 29.0481 24.2734 29.0481C20.6414 29.0481 17.8734 28.5761 15.9694 27.6321C14.0814 26.6881 13.0814 25.1281 12.9694 22.9521H18.1774Z" fill="#F2F2F2"/>
<path d="M54.4003 11.4321V15.6561H46.5763V28.5681H41.6083V15.6561H33.7603V11.4321H54.4003Z" fill="#F2F2F2"/>
<path d="M76.3097 20.2161C76.3097 23.1761 75.4537 25.3921 73.7417 26.8641C72.0457 28.3201 69.3817 29.0481 65.7497 29.0481C62.1017 29.0481 59.4297 28.3201 57.7337 26.8641C56.0377 25.4081 55.1897 23.1921 55.1897 20.2161V11.4321H60.1577V20.0481C60.1577 21.4561 60.5497 22.6081 61.3337 23.5041C62.1177 24.3841 63.5897 24.8241 65.7497 24.8241C67.9097 24.8241 69.3817 24.3761 70.1657 23.4801C70.9657 22.5841 71.3657 21.4401 71.3657 20.0481V11.4321H76.3097V20.2161Z" fill="#F2F2F2"/>
<path d="M89.7463 11.4321C91.2023 11.4321 92.5383 11.7521 93.7543 12.3921C94.9703 13.0161 95.9383 13.9761 96.6583 15.2721C97.3943 16.5521 97.7623 18.1281 97.7623 20.0001C97.7623 21.8721 97.3943 23.4562 96.6583 24.7521C95.9383 26.0321 94.9703 26.9921 93.7543 27.6321C92.5383 28.2561 91.2023 28.5681 89.7463 28.5681H77.4103V11.4321H89.7463ZM87.6583 24.3441C88.7303 24.3441 89.6103 24.2481 90.2983 24.0561C90.9863 23.8641 91.5383 23.4562 91.9543 22.8321C92.3703 22.2081 92.5783 21.2641 92.5783 20.0001C92.5783 18.7361 92.3703 17.7921 91.9543 17.1681C91.5383 16.5441 90.9863 16.1361 90.2983 15.9441C89.6103 15.7521 88.7303 15.6561 87.6583 15.6561H82.3783V24.3441H87.6583Z" fill="#F2F2F2"/>
<path d="M98.5528 11.4321H103.521V28.5681H98.5528V11.4321Z" fill="#F2F2F2"/>
<path d="M115.427 29.0481C111.843 29.0481 109.091 28.2561 107.171 26.6721C105.251 25.0882 104.291 22.8561 104.291 19.9761C104.291 17.1121 105.251 14.8961 107.171 13.3281C109.091 11.7441 111.843 10.9521 115.427 10.9521C117.811 10.9521 119.835 11.3121 121.499 12.0321C123.163 12.7361 124.419 13.7681 125.267 15.1281C126.131 16.4721 126.563 18.0881 126.563 19.9761C126.563 21.8801 126.131 23.5121 125.267 24.8721C124.419 26.2161 123.163 27.2481 121.499 27.9681C119.835 28.6881 117.811 29.0481 115.427 29.0481ZM115.427 24.8241C119.395 24.8241 121.379 23.2081 121.379 19.9761C121.379 16.7761 119.395 15.1761 115.427 15.1761C111.475 15.1761 109.499 16.7761 109.499 19.9761C109.499 23.2081 111.475 24.8241 115.427 24.8241Z" fill="#F2F2F2"/>
<path d="M147.071 16.8561C148.479 16.8561 149.703 17.0881 150.743 17.5521C151.799 18.0001 152.607 18.6481 153.167 19.4961C153.743 20.3441 154.031 21.3521 154.031 22.5201C154.031 24.5841 153.231 26.1921 151.631 27.3441C150.031 28.4801 147.775 29.0481 144.863 29.0481C142.015 29.0481 139.671 28.5602 137.831 27.5842C136.007 26.5921 135.055 25.0721 134.975 23.0241H140.183C140.263 23.7601 140.687 24.3281 141.455 24.7281C142.239 25.1281 143.343 25.3281 144.767 25.3281C146.143 25.3281 147.167 25.0881 147.839 24.6081C148.511 24.1281 148.847 23.4401 148.847 22.5441C148.847 20.7841 147.639 19.9041 145.223 19.9041C144.439 19.9041 143.703 20.0081 143.015 20.2161C142.327 20.4241 141.511 20.8001 140.567 21.3441L135.983 20.4081L137.591 11.4321H152.687V15.1521H141.575L141.095 18.1521C142.007 17.7361 142.927 17.4161 143.855 17.1921C144.799 16.9681 145.871 16.8561 147.071 16.8561Z" fill="#F2F2F2"/>
<path d="M2.5 10.9962C2.5 5.1993 7.1993 0.5 12.9962 0.5H164.5V29.0038C164.5 34.8007 159.801 39.5 154.004 39.5H2.5V10.9962Z" stroke="#F2F2F2"/>
<path d="M4.5 11.0101C4.5 5.20555 9.20555 0.5 15.0101 0.5H162.5V28.9899C162.5 34.7945 157.794 39.5 151.99 39.5H4.5V11.0101Z" stroke="#F2F2F2"/>
<path d="M0.5 11.0101C0.5 5.20555 5.20555 0.5 11.0101 0.5H166.5V28.9899C166.5 34.7945 161.794 39.5 155.99 39.5H0.5V11.0101Z" stroke="#F2F2F2"/>
</svg>
